HIERARCHY
ROOT Hips
{
	OFFSET -3.958830 18.904000 13.208200
	CHANNELS 6 Xposition Yposition Zposition Zrotation Yrotation Xrotation 
	JOINT LHipJoint
	{
		OFFSET 0.000000 0.000000 0.000000
		CHANNELS 3 Zrotation Yrotation Xrotation
		JOINT LeftUpLeg
		{
			OFFSET 1.800000 -1.400000 0.085000
			CHANNELS 3 Zrotation Yrotation Xrotation
			JOINT LeftLeg
			{
				OFFSET 2.215000 -6.000000 0.000000
				CHANNELS 3 Zrotation Yrotation Xrotation
				JOINT LeftFoot
				{
					OFFSET 2.500000 -6.900000 0.000000
					CHANNELS 3 Zrotation Yrotation Xrotation
					JOINT LeftToeBase
					{
						OFFSET 0.200000 -0.500000 1.950000
						CHANNELS 3 Zrotation Yrotation Xrotation
						End Site
						{
							OFFSET 0.000000 0.000000 0.000000
						}
					}
				}
			}
		}
	}
	JOINT RHipJoint
	{
		OFFSET 0.000000 0.000000 0.000000
		CHANNELS 3 Zrotation Yrotation Xrotation
		JOINT RightUpLeg
		{
			OFFSET -1.800000 -1.400000 0.085000
			CHANNELS 3 Zrotation Yrotation Xrotation
			JOINT RightLeg
			{
				OFFSET -2.215000 -6.000000 0.000000
				CHANNELS 3 Zrotation Yrotation Xrotation
				JOINT RightFoot
				{
					OFFSET -2.500000 -6.900000 0.000000
					CHANNELS 3 Zrotation Yrotation Xrotation
					JOINT RightToeBase
					{
						OFFSET -0.200000 -0.500000 1.950000
						CHANNELS 3 Zrotation Yrotation Xrotation
						End Site
						{
							OFFSET 0.000000 0.000000 0.000000
						}
					}
				}
			}
		}
	}
	JOINT LowerBack
	{
		OFFSET 0.000000 0.000000 0.000000
		CHANNELS 3 Zrotation Yrotation Xrotation
		JOINT Spine
		{
			OFFSET -0.087000 1.940000 -0.288900
			CHANNELS 3 Zrotation Yrotation Xrotation
			JOINT Spine1
			{
				OFFSET 0.000000 1.950000 0.060000
				CHANNELS 3 Zrotation Yrotation Xrotation
				JOINT Neck
				{
					OFFSET 0.000000 0.000000 0.000000
					CHANNELS 3 Zrotation Yrotation Xrotation
					JOINT Neck1
					{
						OFFSET 0.000000 1.600000 0.340000
						CHANNELS 3 Zrotation Yrotation Xrotation
						JOINT Head
						{
							OFFSET 0.000000 1.667000 -0.240000
							CHANNELS 3 Zrotation Yrotation Xrotation
							End Site
							{
								OFFSET 0.000000 0.000000 0.000000
							}
						}
					}
				}
				JOINT LeftShoulder
				{
					OFFSET 0.000000 0.000000 0.000000
					CHANNELS 3 Zrotation Yrotation Xrotation
					JOINT LeftArm
					{
						OFFSET 2.700000 1.550000 -0.730000
						CHANNELS 3 Zrotation Yrotation Xrotation
						JOINT LeftForeArm
						{
							OFFSET 5.450000 0.000000 0.000000
							CHANNELS 3 Zrotation Yrotation Xrotation
							JOINT LeftHand
							{
								OFFSET 3.450000 0.000000 0.000000
								CHANNELS 3 Zrotation Yrotation Xrotation
								JOINT LeftHandIndex1
								{
									OFFSET 0.750000 0.000000 0.000000
									CHANNELS 3 Zrotation Yrotation Xrotation
									End Site
									{
										OFFSET 0.000000 0.000000 0.000000
									}
								}
							}
						}
					}
				}
				JOINT RightShoulder
				{
					OFFSET 0.000000 0.000000 0.000000
					CHANNELS 3 Zrotation Yrotation Xrotation
					JOINT RightArm
					{
						OFFSET -2.700000 1.550000 -0.730000
						CHANNELS 3 Zrotation Yrotation Xrotation
						JOINT RightForeArm
						{
							OFFSET -5.450000 0.000000 0.000000
							CHANNELS 3 Zrotation Yrotation Xrotation
							JOINT RightHand
							{
								OFFSET -3.450000 0.000000 0.000000
								CHANNELS 3 Zrotation Yrotation Xrotation
								JOINT RightHandIndex1
								{
									OFFSET -0.750000 0.000000 0.000000
									CHANNELS 3 Zrotation Yrotation Xrotation
									End Site
									{
										OFFSET 0.000000 0.000000 0.000000
									}
								}
							}
						}
					}
				}
			}
		}
	}
}
MOTION
Frames: 9
Frame Time: 0.016667
0.000180 17.286930 -0.331900 -4.044022 -5.062544 7.201303 -15.139381 12.732508 2.831311 0.360332 -1.006145 -9.647797 -6.518672 3.709008 4.771776 -0.854172 4.598061 3.610551 0.236320 -0.232290 -0.267470 18.450213 -10.728929 2.898947 0.262686 0.760906 -9.761699 7.439972 -4.908489 4.747437 -0.639054 -4.054969 2.937725 -0.025370 1.511300 1.333430 -3.842478 -0.924410 -6.900462 9.711148 1.899820 3.439812 -1.797497 1.356913 8.990617 2.666638 -2.265455 -9.059300 -3.945099 8.089180 25.513353 -3.991400 4.907460 -7.963060 -17.201146 -12.814217 4.007094 -61.733776 -15.537393 3.228439 -14.186719 -18.959135 -0.874623 -4.528693 3.013478 0.782380 0.901080 0.081180 0.817560 12.543450 15.142095 6.151869 58.641599 13.960008 -2.059006 21.599449 24.738139 1.900047 1.718100 -1.633957 -0.336080 0.415530 0.266700 0.268530 
0.002390 17.287540 -0.333380 -4.044952 -4.961866 7.199917 -15.135553 12.747167 2.826188 0.380287 -1.021865 -9.849286 -6.527515 3.753489 5.103322 -0.852633 4.599979 3.611489 0.225760 -0.240500 -0.277960 18.448997 -10.742958 2.894810 0.255582 0.790135 -9.926984 7.465552 -4.943603 5.060418 -0.629327 -4.053325 2.940690 -0.029110 1.521800 1.333810 -3.845982 -0.923338 -6.895167 9.764085 1.858043 3.491002 -1.861801 1.329484 8.944132 2.694553 -2.249230 -9.060267 -3.907796 8.079709 25.418027 -4.040510 4.908970 -7.730420 -17.250573 -12.813726 4.001588 -61.604233 -15.472108 3.176915 -14.237696 -18.963550 -0.861932 -4.539626 3.012122 0.772120 0.910160 0.073940 0.817450 12.529272 15.122098 6.152711 58.601282 13.905541 -2.091708 21.694146 24.756724 1.908601 1.717707 -1.634839 -0.336870 0.417560 0.272300 0.272670 
0.004310 17.288080 -0.336760 -4.038709 -4.852784 7.203509 -15.131305 12.771550 2.819981 0.430969 -1.050869 -10.205255 -6.588204 3.836950 5.655636 -0.856564 4.613948 3.609853 0.203620 -0.258670 -0.300900 18.444994 -10.766884 2.884037 0.274502 0.850565 -10.265810 7.431873 -5.001089 5.673855 -0.608433 -4.048770 2.946481 -0.034740 1.545420 1.333770 -3.845223 -0.922074 -6.883856 9.770664 1.817835 3.571149 -1.916364 1.309504 8.883813 2.729260 -2.186787 -9.060181 -3.782021 8.078116 25.236535 -4.127600 4.928250 -7.301050 -17.256893 -12.838039 3.993088 -61.388132 -15.398049 3.130828 -14.348975 -18.881894 -0.843615 -4.563547 3.006939 0.756240 0.929890 0.057210 0.816320 12.461063 15.095547 6.145124 58.537322 13.858719 -2.113661 21.867264 24.729718 1.917799 1.712945 -1.635300 -0.343720 0.424010 0.286820 0.278690 
0.007180 17.286140 -0.339400 -4.045822 -4.788565 7.257083 -15.121511 12.799062 2.812034 0.465088 -1.099519 -10.704561 -6.649466 3.947575 6.430008 -0.864499 4.624542 3.609723 0.183770 -0.271260 -0.323450 18.443973 -10.800387 2.871996 0.294185 0.938186 -10.752816 7.414110 -5.073122 6.489783 -0.583365 -4.039767 2.955258 -0.034660 1.569720 1.326030 -3.856142 -0.908729 -6.867959 9.867506 1.788200 3.680671 -2.040481 1.318873 8.701989 2.738216 -2.178481 -9.014327 -3.736092 8.072365 24.901692 -4.160040 4.897530 -6.913540 -17.191804 -12.651013 3.902363 -61.153230 -15.298668 3.132857 -14.664217 -18.707267 -0.786478 -4.585086 2.997958 0.739500 0.948250 0.038770 0.818090 12.356766 14.893525 6.095491 58.516967 13.715639 -2.153690 22.112670 24.716628 1.933506 1.709013 -1.636661 -0.355170 0.436520 0.296850 0.285690 
0.009430 17.283080 -0.342390 -3.989578 -4.634459 7.325523 -15.116157 12.830826 2.806850 0.504310 -1.181973 -11.373458 -6.828628 4.112979 7.447230 -0.863377 4.650255 3.602969 0.170460 -0.280160 -0.340140 18.437014 -10.829318 2.857389 0.216573 1.048917 -11.317684 7.498244 -5.168764 7.392286 -0.559895 -4.039924 2.959645 -0.034510 1.592140 1.325670 -3.852755 -0.912679 -6.851331 9.813273 1.729449 3.793938 -2.084154 1.296591 8.465218 2.722195 -2.147619 -8.950944 -3.650576 8.067318 24.506485 -4.221220 4.895210 -6.423770 -17.105181 -12.391804 3.803672 -60.853079 -15.134902 3.100381 -15.096170 -18.573007 -0.709541 -4.606714 3.000368 0.717730 0.968600 0.021840 0.823340 12.287687 14.610776 6.003627 58.405499 13.557786 -2.155920 22.445540 24.613856 1.957712 1.707990 -1.647371 -0.359470 0.440480 0.300590 0.294020 
0.011170 17.279360 -0.347030 -3.867477 -4.508534 7.355723 -15.113700 12.871001 2.810157 0.552496 -1.294504 -12.163580 -7.108130 4.342634 8.726831 -0.858848 4.694502 3.584239 0.163740 -0.283630 -0.347570 18.423486 -10.859994 2.837262 0.007317 1.185224 -11.985927 7.641121 -5.305878 8.528586 -0.541228 -4.043415 2.958389 -0.034670 1.604730 1.325170 -3.834975 -0.932471 -6.840588 9.630916 1.667861 4.018485 -2.112924 1.290615 8.203566 2.713353 -2.103682 -8.905813 -3.548251 8.044097 24.152470 -4.289910 4.910280 -6.145840 -16.900512 -12.102819 3.712230 -60.442837 -14.920816 2.982907 -15.758920 -18.617884 -0.596135 -4.619831 3.006101 0.702190 0.981260 0.011220 0.825830 12.090249 14.312249 5.909476 58.350024 13.430757 -2.183243 22.808274 24.570287 1.993406 1.708205 -1.657334 -0.360120 0.441760 0.301340 0.298890 
0.013910 17.275520 -0.351440 -3.874490 -4.404075 7.384592 -15.102283 12.906695 2.815715 0.757045 -1.427696 -13.035423 -7.450178 4.609830 10.096637 -0.853024 4.756261 3.553256 0.161270 -0.283200 -0.352120 18.417976 -10.890189 2.823583 -0.119562 1.353874 -12.709789 7.817778 -5.471084 9.826358 -0.528432 -4.054034 2.949091 -0.033850 1.607870 1.322500 -3.841655 -0.943768 -6.839181 9.758234 1.599696 4.319144 -2.255217 1.297063 7.857642 2.689408 -2.172214 -8.842248 -3.646943 7.988787 23.852899 -4.311250 4.831370 -6.026050 -16.715472 -11.683711 3.566068 -59.948573 -14.701687 2.887403 -16.615121 -18.668833 -0.446471 -4.622478 3.014769 0.694040 0.984050 0.005850 0.826800 11.914485 13.934904 5.819543 58.153704 13.172869 -2.283343 23.467086 24.687337 2.108030 1.710805 -1.668111 -0.359850 0.440210 0.300180 0.302440 
0.016920 17.269430 -0.357190 -3.911888 -4.249451 7.446660 -15.091195 12.934127 2.826977 1.053811 -1.602835 -14.081772 -7.896240 4.949759 11.683879 -0.848893 4.864303 3.504137 0.154310 -0.290040 -0.360750 18.413533 -10.913130 2.811204 -0.197781 1.569010 -13.553155 7.964967 -5.653789 11.286147 -0.512316 -4.078803 2.933383 -0.032010 1.617550 1.321180 -3.850250 -0.954463 -6.839709 9.917880 1.508973 4.624606 -2.381729 1.280537 7.492349 2.649430 -2.225705 -8.767137 -3.710695 7.934780 23.439948 -4.350060 4.737200 -5.798890 -16.391089 -11.195983 3.396965 -59.467591 -14.504591 2.823793 -17.650913 -18.744922 -0.272437 -4.633997 3.025899 0.684020 0.993290 -0.006640 0.825760 11.631185 13.463558 5.706625 57.937874 12.896302 -2.393687 24.224825 24.910419 2.252468 1.707124 -1.682442 -0.364650 0.439670 0.305340 0.303870 
0.020490 17.263340 -0.365510 -3.889991 -4.090718 7.441683 -15.088269 12.961983 2.852930 1.374874 -1.813257 -15.175722 -8.408102 5.359393 13.450151 -0.831161 5.013445 3.435867 0.152920 -0.294730 -0.356190 18.400530 -10.922494 2.797169 -0.452635 1.812894 -14.426476 8.265634 -5.903252 12.891391 -0.508149 -4.126845 2.904191 -0.034230 1.615520 1.323370 -3.835348 -0.994555 -6.855334 9.914763 1.417374 5.050754 -2.393252 1.269297 7.178972 2.636508 -2.262953 -8.738327 -3.762911 7.849162 23.167128 -4.488240 4.701500 -5.761200 -16.162730 -10.864245 3.278010 -58.912041 -14.292930 2.666138 -18.515215 -18.892307 -0.128517 -4.637602 3.036765 0.680410 0.994300 -0.008910 0.821390 11.404791 13.166585 5.649640 57.503309 12.605850 -2.574889 24.925617 25.135347 2.393576 1.707829 -1.691931 -0.363270 0.434540 0.306550 0.301670 
